<svg xmlns="http://www.w3.org/2000/svg" viewBox="0 0 100 100">
  <defs>
    <linearGradient id="amazonGrad" x1="0%" y1="0%" x2="100%" y2="100%">
      <stop offset="0%" style="stop-color:#FF9900;stop-opacity:1" />
      <stop offset="100%" style="stop-color:#FF7700;stop-opacity:1" />
    </linearGradient>
  </defs>
  <rect width="100" height="100" rx="20" fill="url(#amazonGrad)"/>
  <g transform="translate(20, 30)">
    <path d="M 10 10 C 10 5 15 0 25 0 C 35 0 40 5 40 10 L 40 25 C 40 27 41 28 43 28 L 43 33 C 38 33 35 31 35 27 C 33 31 29 35 22 35 C 15 35 10 31 10 25 C 10 18 15 15 25 15 C 28 15 32 16 35 17 L 35 12 C 35 8 32 5 27 5 C 23 5 20 7 19 10 Z M 35 21 C 32 20 29 19 26 19 C 21 19 18 21 18 24 C 18 27 20 29 24 29 C 30 29 35 25 35 21 Z" fill="#000000"/>
  </g>
  <path d="M 20 70 Q 50 80 80 70" stroke="#000000" stroke-width="4" fill="none" stroke-linecap="round"/>
  <polygon points="75,68 82,70 77,75" fill="#000000"/>
</svg>
