<svg xmlns="http://www.w3.org/2000/svg" viewBox="0 0 100 100">
  <defs>
    <linearGradient id="appleGrad" x1="0%" y1="0%" x2="100%" y2="100%">
      <stop offset="0%" style="stop-color:#000000;stop-opacity:1" />
      <stop offset="100%" style="stop-color:#1C1C1C;stop-opacity:1" />
    </linearGradient>
  </defs>
  <rect width="100" height="100" rx="20" fill="url(#appleGrad)"/>
  <g transform="translate(30, 25)">
    <path d="M 25 0 C 23 0 21 1 20 3 C 19 1 17 0 15 0 C 11 0 8 3 8 8 C 8 14 13 19 20 25 C 27 19 32 14 32 8 C 32 3 29 0 25 0 Z M 28 7 L 30 5 C 31 4 31 2 30 1 C 29 0 27 0 26 1 L 23 4 L 20 1 C 19 0 17 0 16 1 C 15 2 15 4 16 5 L 18 7" fill="#FFFFFF"/>
    <path d="M 5 15 C 4 15 3 16 3 18 C 3 20 4 21 6 21 L 14 21 C 15 21 16 20 16 18 C 16 16 15 15 14 15 C 13 15 13 16 12 16 L 8 16 C 7 16 6 15 5 15 Z" fill="#FFFFFF"/>
  </g>
  <text x="50" y="75" font-family="-apple-system, BlinkMacSystemFont, sans-serif" font-size="16" font-weight="500" fill="#FFFFFF" text-anchor="middle">Pay</text>
  <circle cx="85" cy="15" r="4" fill="#FFFFFF" opacity="0.2"/>
</svg>
