<svg xmlns="http://www.w3.org/2000/svg" viewBox="0 0 100 100" width="100" height="100">
  <defs>
    <linearGradient id="cashGrad" x1="0%" y1="0%" x2="100%" y2="100%">
      <stop offset="0%" style="stop-color:#00D54B;stop-opacity:1" />
      <stop offset="100%" style="stop-color:#00B83E;stop-opacity:1" />
    </linearGradient>
    <filter id="cashShadow">
      <feGaussianBlur in="SourceAlpha" stdDeviation="2"/>
      <feOffset dx="0" dy="2" result="offsetblur"/>
      <feComponentTransfer>
        <feFuncA type="linear" slope="0.3"/>
      </feComponentTransfer>
      <feMerge>
        <feMergeNode/>
        <feMergeNode in="SourceGraphic"/>
      </feMerge>
    </filter>
  </defs>
  <rect width="100" height="100" rx="20" fill="url(#cashGrad)"/>
  <g filter="url(#cashShadow)">
    <path d="M 52 25 L 55 25 C 62 25 67 30 67 37 C 67 40 65 43 62 45 L 59 47 C 62 48 64 51 64 55 C 64 62 58 67 51 67 L 48 67 L 48 75 L 42 75 L 42 67 L 38 67 L 38 61 L 42 61 L 42 39 L 38 39 L 38 33 L 42 33 L 42 25 L 48 25 L 48 33 L 52 33 Z M 48 39 L 48 45 L 52 45 C 55 45 57 43 57 41 C 57 39 55 39 52 39 Z M 48 51 L 48 61 L 52 61 C 55 61 58 59 58 56 C 58 53 55 51 52 51 Z" fill="white"/>
  </g>
  <circle cx="85" cy="15" r="8" fill="#FFFFFF" opacity="0.3"/>
  <circle cx="15" cy="85" r="6" fill="#FFFFFF" opacity="0.2"/>
</svg>
