<svg xmlns="http://www.w3.org/2000/svg" viewBox="0 0 100 100" width="100" height="100">
  <defs>
    <linearGradient id="googleGrad" x1="0%" y1="0%" x2="100%" y2="100%">
      <stop offset="0%" style="stop-color:#4285F4;stop-opacity:1" />
      <stop offset="100%" style="stop-color:#357AE8;stop-opacity:1" />
    </linearGradient>
  </defs>
  <rect width="100" height="100" rx="20" fill="#FFFFFF"/>
  <g transform="translate(25, 25)">
    <path d="M 25 0 C 15 0 7 8 7 18 C 7 28 15 36 25 36 C 30 36 34 34 37 31 L 33 27 C 31 29 28 30 25 30 C 19 30 14 25 14 18 C 14 11 19 6 25 6 C 29 6 32 8 34 11 L 38 7 C 35 3 30 0 25 0 Z" fill="#EA4335"/>
    <circle cx="43" cy="18" r="7" fill="#FBBC04"/>
    <rect x="36" y="14" width="14" height="8" fill="#34A853"/>
  </g>
  <text x="50" y="75" font-family="Arial, sans-serif" font-size="16" font-weight="bold" fill="#5F6368" text-anchor="middle">Pay</text>
</svg>
