<svg xmlns="http://www.w3.org/2000/svg" viewBox="0 0 100 100" width="100" height="100">
  <defs>
    <linearGradient id="venmoGrad" x1="0%" y1="0%" x2="100%" y2="100%">
      <stop offset="0%" style="stop-color:#3D95CE;stop-opacity:1" />
      <stop offset="100%" style="stop-color:#2D7FB8;stop-opacity:1" />
    </linearGradient>
    <filter id="venmoGlow">
      <feGaussianBlur stdDeviation="1.5" result="coloredBlur"/>
      <feMerge>
        <feMergeNode in="coloredBlur"/>
        <feMergeNode in="SourceGraphic"/>
      </feMerge>
    </filter>
  </defs>
  <rect width="100" height="100" rx="20" fill="url(#venmoGrad)"/>
  <g filter="url(#venmoGlow)">
    <path d="M 35 20 L 50 20 L 35 70 L 20 70 L 32 28 L 30 28 C 28 32 26 36 24 42 L 18 28 L 32 18 C 34 20 35 22 35 25 Z M 50 28 L 65 70 L 52 70 L 50 35 L 48 35 L 38 70 L 25 70 L 38 20 L 52 20 Z" fill="white"/>
  </g>
  <circle cx="80" cy="20" r="6" fill="#FFFFFF" opacity="0.25"/>
  <path d="M 15 85 Q 20 80 25 85" stroke="#FFFFFF" stroke-width="3" fill="none" opacity="0.2"/>
</svg>
