<svg xmlns="http://www.w3.org/2000/svg" viewBox="0 0 100 100" width="100" height="100">
  <defs>
    <linearGradient id="visaGrad" x1="0%" y1="0%" x2="100%" y2="0%">
      <stop offset="0%" style="stop-color:#1A1F71;stop-opacity:1" />
      <stop offset="100%" style="stop-color:#0D134A;stop-opacity:1" />
    </linearGradient>
    <linearGradient id="visaGold" x1="0%" y1="0%" x2="100%" y2="100%">
      <stop offset="0%" style="stop-color:#F7B600;stop-opacity:1" />
      <stop offset="50%" style="stop-color:#FFD700;stop-opacity:1" />
      <stop offset="100%" style="stop-color:#F7B600;stop-opacity:1" />
    </linearGradient>
  </defs>
  <rect width="100" height="100" rx="20" fill="url(#visaGrad)"/>
  <g transform="translate(15, 35)">
    <path d="M 0 0 L 8 0 L 12 25 L 6 25 Z" fill="url(#visaGold)"/>
    <path d="M 14 0 L 20 0 L 20 25 L 14 25 Z" fill="url(#visaGold)"/>
    <path d="M 22 12 C 22 5 25 0 32 0 C 37 0 40 3 40 8 L 40 25 L 34 25 L 34 10 C 34 7 33 5 31 5 C 29 5 28 7 28 10 L 28 25 L 22 25 Z" fill="url(#visaGold)"/>
    <path d="M 42 0 L 55 0 L 50 25 L 44 25 Z M 46 5 L 44 20 L 51 20 L 49 5 Z" fill="url(#visaGold)"/>
  </g>
  <rect x="10" y="70" width="30" height="4" rx="2" fill="#F7B600" opacity="0.5"/>
  <rect x="60" y="70" width="30" height="4" rx="2" fill="#F7B600" opacity="0.5"/>
</svg>
